<?xml  version="1.0" encoding="UTF-8"?>
<!DOCTYPE svg PUBLIC "-//W3C//DTD SVG 1.0//EN" "http://www.w3.org/TR/2001/REC-SVG-20010904/DTD/svg10.dtd" >
<svg xmlns="http://www.w3.org/2000/svg" >
<metadata>
<version>1.0</version>
<id><![CDATA[Proxima N W01SC Cd Reg It]]></id>
<vendor>Monotype Imaging Inc.</vendor>
<credits>
<name>Fonts.com WebFonts</name>
<URL>http://webfonts.fonts.com</URL>
<role>Home of the Web fonts</role>
</credits>
<license>
<URL>http://webfonts.fonts.com/Legal</URL>
</license>
<copyright><![CDATA[Copyright (c) Mark Simonson, 2005. All rights reserved.]]></copyright>
<trademark><![CDATA[Proxima Nova is a trademark of Mark Simonson.]]></trademark>
<licensee>
<name></name>
</licensee>
</metadata>
<defs >
<font horiz-adv-x="434" id="62350ed2-6698-42b6-85df-dde6ef80193f">
<font-face font-family="" panose-1="2 0 5 6 3 0 0 2 0 4" ascent="769" descent="-231" units-per-em="1000" alphabetic="0">
</font-face>
<missing-glyph horiz-adv-x="0" />

<glyph unicode="&#xA;" />
<glyph unicode="&#xD;" horiz-adv-x="0" />
<glyph unicode=" " horiz-adv-x="215" />
<glyph unicode="!" horiz-adv-x="183" d="M101 163H46L116 550H200L101 163ZM42 -10Q22 -10 8 4T-7 39Q-7 63 10 80T52 97Q72 97 86 83T100 47Q100 23 83 7T42 -10Z"  />
<glyph unicode="&quot;" horiz-adv-x="340" d="M116 414Q122 470 126 515Q128 534 130 552T133 586T136 611T137 624Q139 647 153 662T189 677Q206 677 217 666T228 637Q228 631 226 624T223 614Q222 613 219 604T210 580T199 548T186 512L152 414H116ZM261 414Q267 470 271 515Q273 534 274 552T277 586T280 611T282 624Q284 647 297 662T334 677Q350 677 361 666T373 637Q373 631 371 624T367 614Q367 613 364 604T355 580T344 548T331 512Q315 469 296 414H261Z"  />
<glyph unicode="#" horiz-adv-x="432" d="M424 348H352L280 206H353L330 159H256L177 0H122L202 159H124L44 0H-11L69 159H0L23 206H94L165 348H94L116 393H188L267 550H323L242 393H321L400 550H455L375 393H445L424 348ZM220 348L148 206H226L297 348H220Z"  />
<glyph unicode="$" horiz-adv-x="408" d="M123 -7Q81 -1 48 17T-9 68L40 121Q56 97 81 81T137 58L182 260Q162 272 144 285T110 314T86 351T77 399Q77 432 90 461T127 512T182 547T249 562L264 628H321L305 557Q376 542 416 492L369 440Q355 459 335 472T290 491L250 307Q269 295 288 282T323 250T348 210T358 157Q358 126 347 96T312 42T256 4T179 -12L165 -74H108L123 -7ZM278 155Q278 178 265 195T232 228L194 55Q236 61 257 90T278 155ZM156 405Q156 384 168 369T200 339L234 494Q201 488 179 463T156 405Z"  />
<glyph unicode="%" horiz-adv-x="527" d="M301 451Q301 421 291 392T262 340T219 303T163 289Q115 289 87 318T59 399Q59 429 69 458T97 511T141 548T196 562Q244 562 272 533T301 451ZM76 0H30L464 550H511L76 0ZM250 451Q250 482 236 500T195 519Q177 519 162 509T135 482T117 444T110 399Q110 369 124 351T165 332Q183 332 198 342T225 368T243 406T250 451ZM481 151Q481 121 471 92T443 40T399 3T343 -11Q295 -11 268 18T240 99Q240 129 250 158T278 211T322 248T377 262Q425 262 453 233T481 151ZM431 151Q431 182 417 201T376 220Q358 220 342 210T315 183T297 144T290 100Q290 69 304 51T346 32Q364 32 379 42T406 69T424 107T431 151Z"  />
<glyph unicode="&amp;" horiz-adv-x="450" d="M295 0Q288 11 282 21T270 43Q239 17 207 3T139 -11Q77 -11 39 22T0 116Q0 155 12 185T44 238T89 278T143 311Q135 334 132 355T129 395Q129 430 140 460T171 513T215 549T269 562Q311 562 342 538T374 466Q374 431 361 406T325 360T275 323T218 292Q231 259 251 223Q262 200 271 181T290 143Q313 173 332 206T367 271L417 243Q394 200 370 162T318 92Q329 71 342 49T373 0H295ZM149 42Q172 42 196 55T243 90Q230 114 219 136T198 179Q187 201 178 221T161 260Q123 236 97 205T70 123Q70 89 91 66T149 42ZM193 395Q193 373 201 341Q223 353 243 365T279 391T303 422T312 463Q312 486 301 498T269 511Q253 511 240 502T216 477T199 440T193 395Z"  />
<glyph unicode="&apos;" horiz-adv-x="197" d="M116 414Q122 470 126 515Q128 534 130 552T133 586T136 611T137 624Q139 647 153 662T189 677Q206 677 217 666T228 637Q228 631 226 624T223 614Q222 613 219 604T210 580T199 548T186 512L152 414H116Z"  />
<glyph unicode="(" horiz-adv-x="229" d="M67 -199Q46 -145 34 -82T22 51Q22 227 85 386T261 685L302 654Q256 585 218 509T153 351T111 185T96 15Q96 -4 98 -28T103 -77T110 -128T119 -176L67 -199Z"  />
<glyph unicode=")" horiz-adv-x="229" d="M161 685Q182 631 194 568T206 435Q206 259 143 100T-33 -199L-74 -168Q-28 -99 10 -23T75 135T117 300T132 471Q132 490 130 514T125 563T118 614T109 662L161 685Z"  />
<glyph unicode="*" horiz-adv-x="322" d="M170 391L202 508L91 457L78 497L192 537L102 600L132 635L214 563L234 677H279L247 560L357 611L370 571L258 530L347 468L316 433L234 504L215 391H170Z"  />
<glyph unicode="+" horiz-adv-x="438" d="M262 312L221 128H165L206 312H44L55 363H218L257 540H312L273 363H436L424 312H262Z"  />
<glyph unicode="&#x2c;" horiz-adv-x="229" d="M125 40Q125 17 116 -6T91 -51T55 -90T12 -120L-18 -88Q9 -74 33 -52T65 -4Q64 -5 62 -5T57 -5Q40 -5 28 7T16 39Q16 63 33 80T74 97Q95 97 110 83T125 40Z"  />
<glyph unicode="-" horiz-adv-x="268" d="M22 210L36 274H244L230 210H22Z"  />
<glyph unicode="." horiz-adv-x="229" d="M65 -10Q44 -10 30 4T16 39Q16 63 33 80T75 97Q95 97 109 83T123 47Q123 23 106 7T65 -10Z"  />
<glyph unicode="/" horiz-adv-x="248" d="M-59 -20L289 687H348L-1 -20H-59Z"  />
<glyph unicode="0" horiz-adv-x="514" d="M484 356Q484 326 477 287T457 206T422 126T372 57T307 7T227 -12Q139 -12 90 41T41 194Q41 224 48 263T68 344T103 424T153 493T218 543T298 562Q386 562 435 509T484 356ZM403 357Q403 491 295 491Q265 491 240 475T196 431T163 371T140 305T127 242T122 193Q122 59 231 59Q261 59 285 75T329 119T362 179T385 245T398 307T403 357Z"  />
<glyph unicode="1" horiz-adv-x="315" d="M112 0L210 445L83 335L46 385L242 550H312L191 0H112Z"  />
<glyph unicode="2" horiz-adv-x="483" d="M2 0L16 68Q194 167 283 246T373 400Q373 443 345 467T271 491Q188 491 125 415L82 465Q164 562 279 562Q318 562 350 552T407 523T444 477T458 414Q458 369 436 326T372 241T274 156T147 71H374L359 0H2Z"  />
<glyph unicode="3" horiz-adv-x="473" d="M176 -129Q140 -129 107 -120T47 -94T0 -51T-31 7L32 48Q49 -3 88 -30T176 -58Q208 -58 233 -45T275 -10T301 39T310 97Q310 142 279 166T198 190Q183 190 171 190T151 189L167 262Q170 262 179 262T198 261T219 261T236 261Q265 261 289 271T331 300T359 343T369 398Q369 440 339 464T256 489Q220 489 185 472T122 421L81 471Q113 509 161 534T265 560Q305 560 339 550T398 521T437 474T451 409Q451 373 438 341T403 284T351 243T291 222Q336 208 362 173T388 89Q388 46 373 7T329 -63T261 -111T176 -129Z"  />
<glyph unicode="4" horiz-adv-x="463" d="M325 56L286 -117H207L245 56H-19L-3 126L332 550H433L340 127H413L398 56H325ZM335 463L70 127H261L335 463Z"  />
<glyph unicode="5" horiz-adv-x="493" d="M192 -129Q113 -129 66 -94T-6 4L58 45Q91 -58 194 -58Q224 -58 250 -43T295 -1T326 60T338 130Q338 180 309 207T231 234Q198 234 171 221T116 183L63 209L138 550H479L464 479H202L152 254Q174 276 202 288T269 301Q301 301 328 290T376 259T409 208T421 138Q421 86 404 38T357 -47T284 -106T192 -129Z"  />
<glyph unicode="6" horiz-adv-x="493" d="M225 -12Q180 -12 147 3T91 46T57 112T46 199Q46 238 53 289T76 393T115 497T172 588T247 652T342 677Q399 677 441 651T504 576L448 526Q436 563 408 584T337 606Q297 606 266 583T211 522T171 439T144 349Q140 336 139 328Q151 344 168 360T205 389T248 409T296 417Q363 417 407 377T451 261Q451 213 435 164T389 76T318 13T225 -12ZM228 59Q260 59 286 77T330 124T358 187T368 251Q368 295 341 322T264 350Q222 350 188 323T127 258Q125 245 124 224T122 188Q122 130 148 95T228 59Z"  />
<glyph unicode="7" horiz-adv-x="424" d="M17 -117L358 479H78L93 550H466L453 495L106 -117H17Z"  />
<glyph unicode="8" horiz-adv-x="487" d="M217 -12Q175 -12 139 -3T77 25T37 73T22 141Q22 212 68 268T200 351Q183 360 167 374T137 406T116 445T108 490Q108 532 125 566T171 625T237 663T313 677Q348 677 381 668T440 641T481 594T497 528Q497 489 484 458T447 402T394 362T330 338Q349 327 367 312T398 277T420 234T429 185Q429 142 413 106T367 44T300 3T217 -12ZM272 374Q299 379 324 390T369 418T401 461T413 518Q413 557 384 581T308 605Q284 605 262 596T224 570T197 530T187 479Q187 460 195 444T215 413T243 389T272 374ZM217 59Q242 59 265 69T307 97T337 140T349 195Q349 219 340 238T318 273T288 298T259 312Q228 307 200 294T151 261T118 214T105 155Q105 106 138 83T217 59Z"  />
<glyph unicode="9" horiz-adv-x="493" d="M281 561Q326 561 359 546T415 503T449 437T460 350Q460 311 453 260T430 156T391 52T334 -39T259 -103T164 -128Q107 -128 65 -102T2 -27L58 23Q70 -14 98 -35T169 -57Q209 -57 240 -34T294 27T334 110T362 200Q364 208 364 212T367 221Q355 204 338 189T301 160T258 140T210 132Q143 132 99 172T55 288Q55 336 71 385T117 473T188 536T281 561ZM278 490Q246 490 220 471T176 424T147 362T137 298Q137 254 164 227T241 199Q283 199 317 226T378 291Q380 304 382 325T384 361Q384 419 358 454T278 490Z"  />
<glyph unicode=":" horiz-adv-x="226" d="M65 -10Q45 -10 31 4T16 39Q16 63 33 80T75 97Q95 97 109 83T123 47Q123 23 106 7T65 -10ZM152 383Q131 383 117 397T103 432Q103 456 120 473T162 490Q182 490 196 476T210 441Q210 417 193 400T152 383Z"  />
<glyph unicode=";" horiz-adv-x="228" d="M125 40Q125 17 116 -6T91 -51T55 -90T12 -120L-18 -88Q9 -74 33 -52T65 -4Q64 -5 62 -5T57 -5Q40 -5 28 7T16 39Q16 63 33 80T74 97Q95 97 110 83T125 40ZM152 383Q131 383 117 397T103 432Q103 456 120 473T162 490Q182 490 196 476T210 441Q210 417 193 400T152 383Z"  />
<glyph unicode="&lt;" horiz-adv-x="438" d="M43 309L54 360L476 544L461 481L110 331L395 183L382 125L43 309Z"  />
<glyph unicode="=" horiz-adv-x="438" d="M64 405L76 456H456L445 405H64ZM21 212L33 263H413L402 212H21Z"  />
<glyph unicode="&gt;" horiz-adv-x="438" d="M2 125L17 189L368 337L83 486L95 544L435 360L423 309L2 125Z"  />
<glyph unicode="?" horiz-adv-x="335" d="M359 450Q359 415 345 391T311 347T266 314T222 286T187 257T173 220Q173 203 188 185L128 162Q120 173 115 185T109 215Q109 244 121 264T153 300T195 329T236 358T268 391T281 436Q281 464 261 481T202 499Q172 499 148 488T101 455L71 502Q134 562 216 562Q280 562 319 532T359 450ZM116 -10Q95 -10 81 4T67 39Q67 63 84 80T126 97Q146 97 160 83T174 47Q174 23 157 7T116 -10Z"  />
<glyph unicode="@" horiz-adv-x="693" d="M328 -70Q268 -70 218 -48T131 13T75 108T55 230Q55 311 84 385T164 515T281 604T419 638Q477 638 524 618T606 560T658 471T677 357Q677 295 663 245T627 160T576 105T517 85Q479 85 458 107T434 161L433 167Q411 134 377 110T299 85Q248 85 213 120T177 228Q177 280 193 328T238 415T305 476T387 499Q426 499 451 477T487 424L499 483H564L506 209Q505 204 505 197T504 184Q504 161 514 149T542 137Q555 137 572 150T604 190T631 258T642 357Q642 414 626 459T580 537T509 587T417 604Q351 604 292 573T187 489T116 370T90 231Q90 172 107 123T157 39T233 -17T332 -37Q380 -37 419 -22T494 19L511 -7Q469 -37 424 -53T328 -70ZM322 139Q343 139 361 147T394 167T421 194T443 224L475 374Q472 386 466 398T450 421T427 438T397 445Q363 445 336 425T288 375T257 307T246 234Q246 191 265 165T322 139Z"  />
<glyph unicode="A" horiz-adv-x="512" d="M367 0L357 151H119L43 0H-46L302 667H397L450 0H367ZM333 579L152 222H356L333 579Z"  />
<glyph unicode="B" horiz-adv-x="517" d="M16 0L163 667H361Q395 667 423 657T472 627T503 581T514 523Q514 489 504 458T474 401T430 358T373 336Q393 330 408 317T433 287T449 250T455 209Q455 171 443 134T405 67T342 19T253 0H16ZM313 377Q344 377 366 390T402 422T422 465T429 511Q429 551 404 573T340 596H227L179 377H313ZM248 71Q278 71 301 83T340 115T365 161T374 214Q374 258 351 282T282 306H163L111 71H248Z"  />
<glyph unicode="C" horiz-adv-x="534" d="M273 -12Q223 -12 182 4T112 51T66 127T50 229Q50 309 73 389T137 534T237 638T367 678Q408 678 440 666T498 633T540 584T568 522L493 500Q458 607 361 607Q313 607 272 573T199 484T151 362T133 229Q133 148 171 104T278 59Q350 59 414 140L475 103Q433 45 382 17T273 -12Z"  />
<glyph unicode="D" horiz-adv-x="565" d="M16 0L163 667H337Q378 667 416 651T483 604T529 528T546 424Q546 383 538 336T512 241T467 151T400 74T310 20T194 0H16ZM111 71H208Q272 71 320 105T400 192T448 306T464 422Q464 463 453 495T423 549T378 584T322 596H227L111 71Z"  />
<glyph unicode="E" horiz-adv-x="462" d="M16 0L163 667H506L491 596H227L179 377H436L420 306H163L111 71H375L359 0H16Z"  />
<glyph unicode="F" horiz-adv-x="451" d="M16 0L163 667H506L491 596H227L179 377H436L420 306H163L96 0H16Z"  />
<glyph unicode="G" horiz-adv-x="564" d="M273 -12Q222 -12 181 4T111 52T66 128T50 229Q50 283 60 337T89 441T137 534T200 609T278 659T369 678Q410 678 442 666T498 634T538 588T565 531L495 506Q479 551 446 579T361 607Q313 607 271 573T199 485T151 363T133 229Q133 146 171 103T278 59Q320 59 351 78T406 123L439 271H278L293 342H529L474 92Q433 42 383 15T273 -12Z"  />
<glyph unicode="H" horiz-adv-x="575" d="M372 0L439 308H163L96 0H16L163 667H243L179 378H455L519 667H598L451 0H372Z"  />
<glyph unicode="I" horiz-adv-x="220" d="M16 0L163 667H243L96 0H16Z"  />
<glyph unicode="J" horiz-adv-x="399" d="M118 -12Q72 -12 33 4T-29 55L14 114Q30 88 55 74T113 59Q163 59 192 89T234 174L342 667H422L312 172Q291 77 244 33T118 -12Z"  />
<glyph unicode="K" horiz-adv-x="510" d="M353 0L219 298L142 213L96 0H16L163 667H243L169 331L471 667H571L278 351L442 0H353Z"  />
<glyph unicode="L" horiz-adv-x="414" d="M10 0L157 667H237L105 71H347L332 0H10Z"  />
<glyph unicode="M" horiz-adv-x="684" d="M481 0L601 540L304 0H273L215 540L96 0H16L163 667H271L324 176L595 667H707L560 0H481Z"  />
<glyph unicode="N" horiz-adv-x="573" d="M373 0L209 512L96 0H16L163 667H243L405 166L517 667H596L449 0H373Z"  />
<glyph unicode="O" horiz-adv-x="601" d="M273 -12Q222 -12 181 5T111 54T66 130T50 229Q50 280 60 333T89 436T135 530T197 607T275 659T367 678Q417 678 458 661T528 612T574 535T590 436Q590 360 568 281T505 136T405 30T273 -12ZM278 59Q327 59 368 93T440 181T488 303T506 436Q506 517 466 562T361 607Q312 607 270 573T198 484T150 363T133 229Q133 148 173 104T278 59Z"  />
<glyph unicode="P" horiz-adv-x="488" d="M16 0L163 667H355Q389 667 417 655T465 620T497 569T509 505Q509 463 496 421T454 345T382 289T276 267H155L96 0H16ZM283 338Q318 338 345 352T390 388T417 440T426 499Q426 544 400 570T335 596H227L170 338H285H283Z"  />
<glyph unicode="Q" horiz-adv-x="601" d="M273 -12Q222 -12 181 5T111 54T66 130T50 229Q50 280 60 333T89 436T135 530T197 607T275 659T367 678Q417 678 458 661T528 612T574 535T590 436Q590 382 579 326T547 218T495 121T425 45L449 -10L386 -33L368 9Q345 -1 322 -6T273 -12ZM278 59Q308 59 340 75L285 204L348 227L394 117Q419 144 440 181T475 260T498 347T506 436Q506 517 466 562T361 607Q312 607 270 573T198 484T150 363T133 229Q133 148 173 104T278 59Z"  />
<glyph unicode="R" horiz-adv-x="510" d="M325 0L255 267H154L96 0H16L163 667H348Q381 667 410 656T462 623T497 572T510 505Q510 460 497 421T459 352T403 301T332 275L411 0H325ZM284 337Q319 337 345 351T390 387T417 439T426 499Q426 546 399 571T335 596H227L170 337H284Z"  />
<glyph unicode="S" horiz-adv-x="472" d="M206 -12Q139 -12 83 14T0 82L52 140Q77 103 118 81T209 59Q239 59 262 69T302 97T327 138T336 187Q336 217 319 239T275 280T218 319T161 361T118 413T100 484Q100 524 116 559T160 620T225 662T306 678Q363 678 411 657T489 597L439 540Q415 573 378 590T301 607Q275 607 254 598T217 574T193 538T184 495Q184 468 201 447T245 407T302 369T359 325T402 271T420 199Q420 157 405 119T363 52T295 5T206 -12Z"  />
<glyph unicode="T" horiz-adv-x="447" d="M130 0L262 596H103L118 667H515L500 596H341L209 0H130Z"  />
<glyph unicode="U" horiz-adv-x="569" d="M259 -12Q167 -12 113 36T59 170Q59 183 60 195T64 217L163 667H243L143 215Q142 210 141 199T139 177Q139 123 172 91T262 59Q326 59 361 98T413 215L512 667H592L493 216Q468 106 414 47T259 -12Z"  />
<glyph unicode="V" horiz-adv-x="512" d="M155 0L101 667H184L220 96L508 667H597L250 0H155Z"  />
<glyph unicode="W" horiz-adv-x="717" d="M413 0L421 526L195 0H111L109 667H193L182 124L417 667H483L478 124L707 667H794L498 0H413Z"  />
<glyph unicode="X" horiz-adv-x="512" d="M363 0L265 273L52 0H-46L230 345L112 667H200L289 408L487 667H586L324 337L450 0H363Z"  />
<glyph unicode="Y" horiz-adv-x="501" d="M157 0L219 282L98 667H182L271 359L496 667H589L298 282L236 0H157Z"  />
<glyph unicode="Z" horiz-adv-x="463" d="M-14 0L1 68L394 596H118L133 667H509L495 601L100 71H384L369 0H-14Z"  />
<glyph unicode="[" horiz-adv-x="212" d="M-59 -190L133 678H291L279 625H177L9 -137H110L98 -190H-59Z"  />
<glyph unicode="\" horiz-adv-x="248" d="M93 687H150L190 -20H133L93 687Z"  />
<glyph unicode="]" horiz-adv-x="212" d="M-79 -190L-67 -137H34L203 625H101L113 678H271L78 -190H-79Z"  />
<glyph unicode="^" horiz-adv-x="381" d="M325 333L274 610L99 333H38L256 667H311L381 333H325Z"  />
<glyph unicode="_" horiz-adv-x="422" d="M-77 -93L-65 -40H362L349 -93H-77Z"  />
<glyph unicode="`" horiz-adv-x="186" d="M204 556L101 700H174L255 556H204Z"  />
<glyph unicode="a" horiz-adv-x="445" d="M333 550L384 0H305L296 122H97L35 0H-48L246 550H333ZM273 465L128 188H294L273 465Z"  />
<glyph unicode="b" horiz-adv-x="449" d="M12 0L133 550H298Q361 550 401 521T441 433Q441 408 434 383T412 337T377 301T327 280Q358 267 375 239T393 176Q393 142 382 111T349 55T295 15T220 0H12ZM218 66Q240 66 258 75T289 100T309 136T316 178Q316 210 298 229T244 249H141L101 66H218ZM271 315Q293 315 309 324T337 349T355 383T361 420Q361 454 339 469T281 484H194L155 315H264H271Z"  />
<glyph unicode="c" horiz-adv-x="468" d="M238 -12Q194 -12 157 1T94 41T53 107T38 197Q38 260 57 324T112 442T198 528T312 562Q375 562 419 529T480 441L415 419Q402 455 374 475T310 496Q268 496 233 469T171 398T130 302T115 199Q115 128 150 91T242 54Q278 54 307 72T361 126L416 93Q382 46 340 17T238 -12Z"  />
<glyph unicode="d" horiz-adv-x="502" d="M12 0L133 550H265Q311 550 350 537T417 497T460 432T476 344Q476 284 460 223T408 112T317 31T183 0H12ZM195 66Q245 66 283 90T346 154T385 243T398 341Q398 410 361 447T256 484H193L101 66H194H195Z"  />
<glyph unicode="e" horiz-adv-x="411" d="M12 0L133 550H434L420 484H194L155 315H376L362 249H141L101 66H327L313 0H12Z"  />
<glyph unicode="f" horiz-adv-x="401" d="M12 0L133 550H434L420 484H194L155 315H376L362 249H141L87 0H12Z"  />
<glyph unicode="g" horiz-adv-x="500" d="M241 -12Q196 -12 159 2T94 42T52 107T37 195Q37 260 56 325T111 443T198 529T312 562Q375 562 419 529T482 444L417 420Q404 452 377 474T308 496Q265 496 230 469T169 398T129 301T115 197Q115 128 151 91T245 54Q277 54 301 63T340 87L370 222H249L263 285H455L403 49Q371 22 332 5T241 -12Z"  />
<glyph unicode="h" horiz-adv-x="513" d="M319 0L374 250H141L87 0H12L133 550H208L156 316H388L440 550H515L394 0H319Z"  />
<glyph unicode="i" horiz-adv-x="206" d="M12 0L133 550H208L87 0H12Z"  />
<glyph unicode="j" horiz-adv-x="353" d="M96 -12Q51 -12 17 3T-36 49L8 101Q20 79 40 67T90 54Q133 54 156 78T190 147L279 550H354L264 141Q246 59 204 24T96 -12Z"  />
<glyph unicode="k" horiz-adv-x="453" d="M299 0L184 238L125 176L87 0H12L133 550H208L148 280L402 550H492L240 289L387 0H299Z"  />
<glyph unicode="l" horiz-adv-x="378" d="M12 0L133 550H208L101 66H309L295 0H12Z"  />
<glyph unicode="m" horiz-adv-x="605" d="M412 0L506 428L265 0H233L181 428L87 0H12L133 550H231L280 148L506 550H607L486 0H412Z"  />
<glyph unicode="n" horiz-adv-x="510" d="M315 0L179 418L86 0H12L133 550H211L346 142L436 550H511L390 0H315Z"  />
<glyph unicode="o" horiz-adv-x="529" d="M235 -12Q143 -12 91 44T38 197Q38 254 55 318T106 437T190 526T307 562Q398 562 451 506T504 353Q504 296 487 232T435 113T351 24T235 -12ZM237 54Q283 54 318 84T378 159T414 256T427 352Q427 417 396 456T305 496Q259 496 224 466T164 391T127 294T114 198Q114 133 145 94T237 54Z"  />
<glyph unicode="p" horiz-adv-x="429" d="M12 0L133 550H287Q356 550 396 514T437 414Q437 378 425 342T389 278T331 233T251 215H134L87 0H12ZM253 281Q278 281 298 292T331 321T352 362T359 408Q359 445 337 464T275 484H194L148 281H250H253Z"  />
<glyph unicode="q" horiz-adv-x="529" d="M235 -12Q143 -12 91 44T38 197Q38 254 55 318T106 437T190 526T307 562Q398 562 451 506T504 353Q504 312 496 268T470 182T427 102T369 37L388 -7L331 -31L316 4Q276 -12 235 -12ZM237 54Q264 54 290 66L248 167L305 191L341 105Q362 129 378 159T405 223T421 289T427 352Q427 417 396 456T305 496Q259 496 224 466T164 391T127 294T114 198Q114 133 145 94T237 54Z"  />
<glyph unicode="r" horiz-adv-x="449" d="M272 0L212 215H134L87 0H12L133 550H289Q358 550 398 512T438 413Q438 379 428 347T399 289T351 245T285 222L356 0H272ZM251 281Q278 281 298 292T332 322T353 362T360 407Q360 444 338 464T280 484H194L148 281H241H251Z"  />
<glyph unicode="s" horiz-adv-x="408" d="M176 -12Q118 -12 70 7T-9 68L40 121Q60 90 96 72T176 54Q202 54 221 62T253 85T272 117T278 155Q278 180 263 198T226 232T178 263T129 296T92 339T77 399Q77 433 91 462T129 514T185 549T255 562Q306 562 348 543T416 492L369 440Q351 466 319 481T253 496Q233 496 216 489T185 470T164 441T156 405Q156 382 171 365T208 334T257 304T305 269T343 222T358 157Q358 126 346 96T311 41T254 3T176 -12Z"  />
<glyph unicode="t" horiz-adv-x="373" d="M95 0L201 484H73L88 550H419L405 484H276L170 0H95Z"  />
<glyph unicode="u" horiz-adv-x="507" d="M227 -12Q139 -12 93 27T46 133Q46 147 48 162T53 188L133 550H208L127 184Q125 176 124 166T122 148Q122 99 151 77T228 54Q280 54 309 87T352 187L433 550H508L428 189Q417 141 402 104T362 41T305 2T227 -12Z"  />
<glyph unicode="v" horiz-adv-x="445" d="M125 0L73 550H153L188 95L424 550H505L212 0H125Z"  />
<glyph unicode="w" horiz-adv-x="623" d="M351 0L349 417L164 0H86L76 550H156L154 122L347 550H410L412 122L601 550H681L429 0H351Z"  />
<glyph unicode="x" horiz-adv-x="448" d="M303 0L220 222L40 0H-48L185 281L82 550H167L243 340L411 550H499L278 282L388 0H303Z"  />
<glyph unicode="y" horiz-adv-x="439" d="M129 0L180 233L70 550H152L232 304L418 550H502L255 233L204 0H129Z"  />
<glyph unicode="z" horiz-adv-x="405" d="M-21 0L-9 58L325 484H86L100 550H433L420 493L87 66H332L318 0H-21Z"  />
<glyph unicode="{" horiz-adv-x="231" d="M81 -190Q62 -190 45 -184T14 -165T-8 -136T-16 -97Q-16 -89 -15 -82T-12 -69L36 150Q37 155 38 159T39 169Q39 191 29 205T0 220L11 268Q40 268 56 288T78 338L127 559Q141 620 177 649T264 678H310L298 625H252Q226 625 209 608T183 559L132 326Q124 294 110 272T67 238Q82 230 89 216T96 184Q96 176 95 168T92 150L44 -69Q43 -74 43 -78T42 -88Q42 -111 55 -124T87 -137H129L117 -190H81Z"  />
<glyph unicode="|" horiz-adv-x="194" d="M90 -20V687H144V-20H90Z"  />
<glyph unicode="}" horiz-adv-x="231" d="M149 678Q168 678 185 672T216 653T238 624T246 584Q246 578 245 570T243 557L194 338Q193 333 193 329T192 319Q192 297 201 283T231 268L220 220Q191 220 175 200T152 150L103 -71Q89 -132 53 -161T-34 -190H-80L-68 -137H-22Q4 -137 21 -120T47 -71L98 162Q106 194 120 216T163 250Q149 258 142 272T134 304Q134 312 135 320T138 338L186 557Q187 562 187 566T188 576Q188 599 175 612T143 625H101L113 678H149Z"  />
<glyph unicode="~" horiz-adv-x="449" d="M514 662Q505 621 492 579T458 502T411 446T348 424Q317 424 302 438T279 473T269 519T265 565T255 601T229 615Q197 615 170 566T121 423L68 429Q77 470 91 512T125 589T171 644T233 666Q264 666 280 652T303 617T312 570T317 524T327 488T352 474Q384 474 411 523T461 667L514 662Z"  />
<glyph unicode="&#xA0;" horiz-adv-x="215" />
<glyph unicode="&#xA1;" horiz-adv-x="183" d="M82 387H137L67 0H-17L82 387ZM141 560Q161 560 175 546T190 511Q190 487 173 470T131 453Q111 453 97 467T83 503Q83 527 100 543T141 560Z"  />
<glyph unicode="&#xA2;" horiz-adv-x="468" d="M237 -12L219 -93H162L181 -6Q115 9 77 60T38 197Q38 259 57 323T111 439T195 526T307 562L320 619H377L363 555Q407 544 437 514T480 441L415 419Q406 445 389 463T348 489L251 54Q284 56 311 74T361 126L416 93Q382 46 340 17T238 -12H237ZM115 199Q115 143 136 109T196 61L292 495Q253 489 221 460T165 389T128 297T115 199Z"  />
<glyph unicode="&#xA3;" horiz-adv-x="370" d="M25 272H89Q81 293 75 316T68 367Q68 409 82 444T120 506T176 546T245 561Q296 561 336 534T386 459L324 439Q318 472 296 488T246 505Q223 505 204 494T171 465T150 421T142 368Q142 339 148 317T163 272H264L253 225H174Q175 220 175 214T175 203Q175 181 168 161T149 123T124 93T100 72Q113 77 124 77Q141 77 154 73T180 64T204 55T230 51Q250 51 266 59T294 81L312 28Q295 11 274 1T221 -10Q197 -10 180 -5T147 6T117 17T82 22Q65 22 46 14T4 -8L-10 43Q14 54 35 70T72 105T97 147T107 194Q107 202 106 209T103 225H14L25 272Z"  />
<glyph unicode="&#xA4;" horiz-adv-x="506" d="M253 222Q310 222 341 262T372 365Q372 395 364 421T341 467T304 498T253 509Q224 509 202 498T165 468T141 422T133 365Q133 334 141 308T164 263T202 233T253 222ZM19 168L88 239Q50 294 50 365Q50 436 88 489L19 560L64 603L131 534Q155 552 185 563T253 574Q289 574 320 563T375 534L442 603L487 560L418 489Q455 435 455 365Q455 330 445 298T417 240L487 168L442 125L374 194Q325 157 253 157Q181 157 132 194L64 125L19 168Z"  />
<glyph unicode="&#xA5;" horiz-adv-x="439" d="M129 0L154 114H-8L2 160H164L180 232H18L28 278H164L70 550H152L232 304L418 550H502L290 278H425L414 232H255L239 160H398L388 114H229L204 0H129Z"  />
<glyph unicode="&#xA6;" horiz-adv-x="194" d="M90 -20V296H144V-20H90ZM90 371V687H144V371H90Z"  />
<glyph unicode="&#xA7;" horiz-adv-x="390" d="M368 323Q368 275 340 237T255 180Q285 160 299 133T313 77Q313 46 301 18T268 -33T215 -68T146 -81Q88 -81 44 -63T-29 -9L16 36Q35 7 68 -9T144 -26Q165 -26 183 -19T213 1T233 31T241 67Q241 90 227 106T192 136T146 162T100 191T64 230T50 286Q50 335 83 373T179 421Q145 441 125 469T105 533Q105 563 116 589T149 634T199 665T263 677Q320 677 359 660T424 610L381 570Q361 599 330 611T266 623Q226 623 201 599T175 542Q175 519 189 503T225 473T271 446T318 417T353 378T368 323ZM297 308Q297 340 277 359T232 393Q201 389 180 380T146 357T126 329T120 299Q120 269 143 248T207 207Q256 222 276 249T297 308Z"  />
<glyph unicode="&#xA8;" horiz-adv-x="268" d="M346 609Q346 589 331 574T295 559Q278 559 267 570T255 599Q255 619 270 634T306 649Q323 649 334 638T346 609ZM171 609Q171 589 156 574T121 559Q104 559 93 570T81 599Q81 619 96 634T131 649Q148 649 159 638T171 609Z"  />
<glyph unicode="&#xA9;" horiz-adv-x="778" d="M754 334Q754 263 727 200T653 90T543 16T408 -11Q337 -11 274 16T165 90T91 200T64 334Q64 406 91 468T164 578T274 652T408 679Q480 679 543 652T653 578T727 469T754 334ZM724 334Q724 399 699 456T631 556T531 624T408 649Q343 649 286 624T187 557T119 457T94 334Q94 269 119 212T186 112T286 44T408 19Q473 19 530 44T631 112T699 212T724 334ZM524 173Q497 150 464 136T390 121Q345 121 310 135T249 175T211 234T198 307Q198 358 218 402T271 479T346 529T434 548Q485 548 525 529T589 468L559 447Q541 481 509 498T433 515Q397 515 362 500T298 457T252 391T234 308Q234 276 245 248T276 199T326 166T390 153Q422 153 453 167T505 201L524 173Z"  />
<glyph unicode="&#xAA;" horiz-adv-x="351" d="M243 603Q220 603 201 588T168 550T147 498T139 442Q139 404 156 384T203 363Q226 363 246 378T281 414L312 556Q305 576 286 589T243 603ZM386 640L317 326H261L271 371Q251 343 228 331T180 318Q139 318 110 347T81 438Q81 474 92 511T122 579T169 629T231 648Q260 648 284 635T321 596L331 640H386Z"  />
<glyph unicode="&#xAB;" horiz-adv-x="382" d="M114 63L29 243L194 420H264L95 239L178 63H114ZM244 63L159 243L324 420H394L225 239L308 63H244Z"  />
<glyph unicode="&#xAC;" horiz-adv-x="441" d="M402 212H349L392 405H64L76 456H456L402 212Z"  />
<glyph unicode="&#xAD;" horiz-adv-x="268" d="M22 210L36 274H244L230 210H22Z"  />
<glyph unicode="&#xAE;" horiz-adv-x="494" d="M508 465Q508 421 492 383T446 315T378 270T295 253Q251 253 213 269T146 315T101 382T84 465Q84 509 100 548T146 615T213 660T296 677Q340 677 379 661T446 616T491 548T508 465ZM479 465Q479 504 465 537T425 595T367 634T295 648Q257 648 224 634T166 595T127 537T113 465Q113 427 127 394T165 336T223 297T295 282Q333 282 366 296T425 335T464 393T479 465ZM329 343L287 439H241L220 343H188L241 586H333Q362 586 382 569T403 522Q403 504 396 489T378 463T352 446T323 440L367 343H329ZM369 518Q369 538 357 548T328 558H267L247 468H315Q338 468 353 482T369 518Z"  />
<glyph unicode="&#xAF;" horiz-adv-x="306" d="M77 591L87 637H392L382 591H77Z"  />
<glyph unicode="&#xB0;" horiz-adv-x="289" d="M334 555Q334 530 325 509T299 471T260 445T213 435Q188 435 166 444T128 470T102 508T92 555Q92 580 101 602T127 641T166 667T213 677Q238 677 260 668T298 642T324 603T334 555ZM288 555Q288 586 266 608T213 630Q182 630 161 608T139 555Q139 525 160 504T212 482Q243 482 265 503T288 555Z"  />
<glyph unicode="&#xB1;" horiz-adv-x="438" d="M263 318L222 134H167L208 318H45L56 369H219L258 546H313L274 369H437L425 318H263ZM-20 22L-10 73H371L360 22H-20Z"  />
<glyph unicode="&#xB2;" horiz-adv-x="327" d="M80 421L90 468Q154 518 200 555T277 621T321 675T336 723Q336 752 316 765T270 779Q213 779 175 732L146 770Q171 797 203 812T272 827Q296 827 318 821T357 803T385 771T396 727Q396 697 380 669T334 609T262 544T168 469H341L331 421H80Z"  />
<glyph unicode="&#xB3;" horiz-adv-x="327" d="M358 539Q358 518 349 496T323 455T281 426T224 414Q176 414 141 433T88 486L130 518Q144 491 167 477T221 462Q240 462 255 469T280 489T295 516T300 548Q300 574 280 588T227 603Q219 603 211 603T198 602L209 650Q216 649 230 649T254 649Q289 649 312 669T335 724Q335 750 315 764T265 779Q238 779 216 768T174 735L146 771Q169 797 201 812T269 827Q322 827 358 803T394 731Q394 692 367 660T294 622Q321 615 339 593T358 539Z"  />
<glyph unicode="&#xB4;" horiz-adv-x="186" d="M120 556H67L213 700H287L120 556Z"  />
<glyph unicode="&#xB5;" horiz-adv-x="465" d="M-29 -184L119 483H190L114 139Q103 90 119 70T171 50Q189 50 207 56T243 74T275 98T302 127L381 483H453L346 0H274L288 65Q259 33 218 11T131 -12Q116 -12 104 -10T81 -5L42 -184H-29Z"  />
<glyph unicode="&#xB6;" horiz-adv-x="449" d="M256 -100L417 623H327L166 -100H122L216 323Q188 323 163 334T120 367T90 416T79 479Q79 514 93 548T134 608T195 651T273 667H469L299 -100H256Z"  />
<glyph unicode="&#xB7;" horiz-adv-x="229" d="M109 191Q89 191 75 205T61 240Q61 264 78 281T119 298Q139 298 153 284T168 249Q168 225 151 208T109 191Z"  />
<glyph unicode="&#xB8;" horiz-adv-x="185" d="M6 -191Q-25 -191 -48 -181T-89 -153L-63 -119Q-49 -136 -31 -144T8 -152Q34 -152 48 -138T63 -104Q63 -91 55 -83T32 -75Q15 -75 1 -91L-27 -73L22 11H66L25 -55Q38 -45 54 -45Q77 -45 92 -60T107 -102Q107 -140 79 -165T6 -191Z"  />
<glyph unicode="&#xB9;" horiz-adv-x="225" d="M149 421L220 742L146 679L118 716L245 821H296L208 421H149Z"  />
<glyph unicode="&#xBA;" horiz-adv-x="348" d="M207 318Q147 318 115 353T83 446Q83 480 94 516T127 581T179 629T246 648Q306 648 338 613T370 520Q370 486 359 450T326 385T274 337T207 318ZM208 365Q233 365 253 381T286 421T306 472T313 522Q313 559 295 579T244 600Q218 600 199 584T167 544T147 493T140 444Q140 407 158 386T208 365Z"  />
<glyph unicode="&#xBB;" horiz-adv-x="382" d="M139 420L224 240L59 63H-11L158 245L75 420H139ZM269 420L354 240L189 63H119L288 245L205 420H269Z"  />
<glyph unicode="&#xBC;" horiz-adv-x="673" d="M112 0H65L561 667H609L112 0ZM568 101L546 0H489L511 101H342L352 146L559 400H634L578 148H625L615 101H568ZM563 337L407 148H521L563 337ZM115 267L186 588L112 525L84 562L211 667H262L174 267H115Z"  />
<glyph unicode="&#xBD;" horiz-adv-x="708" d="M112 0H65L561 667H609L112 0ZM368 0L378 47Q442 97 488 134T565 200T609 254T624 302Q624 331 604 344T558 358Q501 358 463 311L434 349Q459 376 491 391T560 406Q584 406 606 400T645 382T673 350T684 306Q684 276 668 248T622 188T550 123T456 48H629L619 0H368ZM115 267L186 588L112 525L84 562L211 667H262L174 267H115Z"  />
<glyph unicode="&#xBE;" horiz-adv-x="746" d="M185 0H138L634 667H682L185 0ZM641 101L619 0H562L584 101H415L425 146L632 400H707L651 148H698L688 101H641ZM636 337L480 148H594L636 337ZM324 385Q324 364 315 342T289 301T247 272T190 260Q142 260 107 279T54 332L96 364Q110 337 133 323T187 308Q206 308 221 315T246 335T261 362T266 394Q266 420 246 434T193 449Q185 449 177 449T164 448L175 496Q182 495 196 495T220 495Q255 495 278 515T301 570Q301 596 281 610T231 625Q204 625 182 614T140 581L112 617Q135 643 167 658T235 673Q288 673 324 649T360 577Q360 538 333 506T260 468Q287 461 305 439T324 385Z"  />
<glyph unicode="&#xBF;" horiz-adv-x="335" d="M-24 100Q-24 135 -10 159T24 203T69 236T113 264T148 293T162 330Q162 347 147 365L207 388Q215 377 220 365T226 335Q226 307 214 287T182 250T140 221T99 192T67 159T54 114Q54 86 74 69T133 51Q163 51 187 62T234 95L264 48Q201 -12 119 -12Q55 -12 16 18T-24 100ZM219 560Q240 560 254 546T268 511Q268 487 251 470T209 453Q189 453 175 467T161 503Q161 527 178 543T219 560Z"  />
<glyph unicode="&#xC0;" horiz-adv-x="512" d="M371 728L268 872H341L422 728H371ZM367 0L357 151H119L43 0H-46L302 667H397L450 0H367ZM333 579L152 222H356L333 579Z"  />
<glyph unicode="&#xC1;" horiz-adv-x="512" d="M357 728H304L450 872H524L357 728ZM367 0L357 151H119L43 0H-46L302 667H397L450 0H367ZM333 579L152 222H356L333 579Z"  />
<glyph unicode="&#xC2;" horiz-adv-x="512" d="M437 728L388 833L296 728H248L360 872H430L481 728H437ZM367 0L357 151H119L43 0H-46L302 667H397L450 0H367ZM333 579L152 222H356L333 579Z"  />
<glyph unicode="&#xC3;" horiz-adv-x="512" d="M418 726Q392 726 382 740T364 773T350 805T325 820Q307 820 293 799T269 732H226Q232 760 241 784T263 827T293 855T332 866Q357 866 368 852T385 819T399 787T425 772Q443 772 456 793T481 860H524Q512 803 487 765T418 726ZM367 0L357 151H119L43 0H-46L302 667H397L450 0H367ZM333 579L152 222H356L333 579Z"  />
<glyph unicode="&#xC4;" horiz-adv-x="512" d="M506 778Q506 758 491 743T455 728Q438 728 427 739T415 768Q415 788 430 803T466 818Q483 818 494 807T506 778ZM331 778Q331 758 316 743T281 728Q264 728 253 739T241 768Q241 788 256 803T291 818Q308 818 319 807T331 778ZM367 0L357 151H119L43 0H-46L302 667H397L450 0H367ZM333 579L152 222H356L333 579Z"  />
<glyph unicode="&#xC5;" horiz-adv-x="512" d="M365 692Q329 692 307 715T284 775Q284 795 292 813T313 845T345 867T384 875Q420 875 442 852T465 792Q465 772 457 754T436 722T404 700T365 692ZM368 730Q392 730 410 747T428 789Q428 810 415 823T381 837Q357 837 340 820T322 778Q322 758 335 744T368 730ZM367 0L357 151H119L43 0H-46L302 667H397L450 0H367ZM333 579L152 222H356L333 579Z"  />
<glyph unicode="&#xC6;" horiz-adv-x="752" d="M307 0L339 151H148L46 0H-43L421 667H797L782 596H518L469 377H726L710 306H453L401 71H665L650 0H307ZM433 572L193 222H355L433 572Z"  />
<glyph unicode="&#xC7;" horiz-adv-x="534" d="M263 -12L237 -55Q250 -45 266 -45Q289 -45 304 -60T319 -102Q319 -140 291 -165T218 -191Q187 -191 164 -181T123 -153L149 -119Q163 -136 181 -144T220 -152Q246 -152 260 -138T275 -104Q275 -91 267 -83T244 -75Q227 -75 213 -91L185 -73L223 -7Q144 7 97 68T50 229Q50 309 73 389T137 534T237 638T367 678Q408 678 440 666T498 633T540 584T568 522L493 500Q458 607 361 607Q313 607 272 573T199 484T151 362T133 229Q133 148 171 104T278 59Q350 59 414 140L475 103Q433 45 382 17T273 -12H263Z"  />
<glyph unicode="&#xC8;" horiz-adv-x="462" d="M358 728L255 872H328L409 728H358ZM16 0L163 667H506L491 596H227L179 377H436L420 306H163L111 71H375L359 0H16Z"  />
<glyph unicode="&#xC9;" horiz-adv-x="462" d="M343 728H290L436 872H510L343 728ZM16 0L163 667H506L491 596H227L179 377H436L420 306H163L111 71H375L359 0H16Z"  />
<glyph unicode="&#xCA;" horiz-adv-x="462" d="M422 728L373 833L281 728H233L345 872H415L466 728H422ZM16 0L163 667H506L491 596H227L179 377H436L420 306H163L111 71H375L359 0H16Z"  />
<glyph unicode="&#xCB;" horiz-adv-x="462" d="M492 778Q492 758 477 743T441 728Q424 728 413 739T401 768Q401 788 416 803T452 818Q469 818 480 807T492 778ZM317 778Q317 758 302 743T267 728Q250 728 239 739T227 768Q227 788 242 803T277 818Q294 818 305 807T317 778ZM16 0L163 667H506L491 596H227L179 377H436L420 306H163L111 71H375L359 0H16Z"  />
<glyph unicode="&#xCC;" horiz-adv-x="220" d="M224 728L121 872H194L275 728H224ZM16 0L163 667H243L96 0H16Z"  />
<glyph unicode="&#xCD;" horiz-adv-x="220" d="M211 728H158L304 872H378L211 728ZM16 0L163 667H243L96 0H16Z"  />
<glyph unicode="&#xCE;" horiz-adv-x="220" d="M290 728L241 833L149 728H101L213 872H283L334 728H290ZM16 0L163 667H243L96 0H16Z"  />
<glyph unicode="&#xCF;" horiz-adv-x="220" d="M361 778Q361 758 346 743T310 728Q293 728 282 739T270 768Q270 788 285 803T321 818Q338 818 349 807T361 778ZM186 778Q186 758 171 743T136 728Q119 728 108 739T96 768Q96 788 111 803T146 818Q163 818 174 807T186 778ZM16 0L163 667H243L96 0H16Z"  />
<glyph unicode="&#xD0;" horiz-adv-x="589" d="M40 0L106 301H28L43 367H121L187 667H361Q402 667 440 651T507 604T553 528T570 424Q570 383 562 336T536 241T491 151T424 74T334 20T218 0H40ZM186 301L135 71H232Q296 71 344 105T424 192T472 306T488 422Q488 463 477 495T447 549T402 584T346 596H251L200 367H327L312 301H186Z"  />
<glyph unicode="&#xD1;" horiz-adv-x="573" d="M449 726Q423 726 413 740T395 773T381 805T356 820Q338 820 324 799T300 732H257Q263 760 272 784T294 827T324 855T363 866Q388 866 399 852T416 819T430 787T456 772Q474 772 487 793T512 860H555Q543 803 518 765T449 726ZM373 0L209 512L96 0H16L163 667H243L405 166L517 667H596L449 0H373Z"  />
<glyph unicode="&#xD2;" horiz-adv-x="601" d="M416 728L313 872H386L467 728H416ZM273 -12Q222 -12 181 5T111 54T66 130T50 229Q50 280 60 333T89 436T135 530T197 607T275 659T367 678Q417 678 458 661T528 612T574 535T590 436Q590 360 568 281T505 136T405 30T273 -12ZM278 59Q327 59 368 93T440 181T488 303T506 436Q506 517 466 562T361 607Q312 607 270 573T198 484T150 363T133 229Q133 148 173 104T278 59Z"  />
<glyph unicode="&#xD3;" horiz-adv-x="601" d="M401 728H348L494 872H568L401 728ZM273 -12Q222 -12 181 5T111 54T66 130T50 229Q50 280 60 333T89 436T135 530T197 607T275 659T367 678Q417 678 458 661T528 612T574 535T590 436Q590 360 568 281T505 136T405 30T273 -12ZM278 59Q327 59 368 93T440 181T488 303T506 436Q506 517 466 562T361 607Q312 607 270 573T198 484T150 363T133 229Q133 148 173 104T278 59Z"  />
<glyph unicode="&#xD4;" horiz-adv-x="601" d="M481 728L432 833L340 728H292L404 872H474L525 728H481ZM273 -12Q222 -12 181 5T111 54T66 130T50 229Q50 280 60 333T89 436T135 530T197 607T275 659T367 678Q417 678 458 661T528 612T574 535T590 436Q590 360 568 281T505 136T405 30T273 -12ZM278 59Q327 59 368 93T440 181T488 303T506 436Q506 517 466 562T361 607Q312 607 270 573T198 484T150 363T133 229Q133 148 173 104T278 59Z"  />
<glyph unicode="&#xD5;" horiz-adv-x="601" d="M466 726Q440 726 430 740T412 773T398 805T373 820Q355 820 341 799T317 732H274Q280 760 289 784T311 827T341 855T380 866Q405 866 416 852T433 819T447 787T473 772Q491 772 504 793T529 860H572Q560 803 535 765T466 726ZM273 -12Q222 -12 181 5T111 54T66 130T50 229Q50 280 60 333T89 436T135 530T197 607T275 659T367 678Q417 678 458 661T528 612T574 535T590 436Q590 360 568 281T505 136T405 30T273 -12ZM278 59Q327 59 368 93T440 181T488 303T506 436Q506 517 466 562T361 607Q312 607 270 573T198 484T150 363T133 229Q133 148 173 104T278 59Z"  />
<glyph unicode="&#xD6;" horiz-adv-x="601" d="M550 778Q550 758 535 743T499 728Q482 728 471 739T459 768Q459 788 474 803T510 818Q527 818 538 807T550 778ZM375 778Q375 758 360 743T325 728Q308 728 297 739T285 768Q285 788 300 803T335 818Q352 818 363 807T375 778ZM273 -12Q222 -12 181 5T111 54T66 130T50 229Q50 280 60 333T89 436T135 530T197 607T275 659T367 678Q417 678 458 661T528 612T574 535T590 436Q590 360 568 281T505 136T405 30T273 -12ZM278 59Q327 59 368 93T440 181T488 303T506 436Q506 517 466 562T361 607Q312 607 270 573T198 484T150 363T133 229Q133 148 173 104T278 59Z"  />
<glyph unicode="&#xD7;" horiz-adv-x="438" d="M234 298L77 169L45 208L204 337L105 463L146 496L243 370L401 499L433 460L275 331L373 205L332 172L234 298Z"  />
<glyph unicode="&#xD8;" horiz-adv-x="601" d="M273 -12Q183 -12 124 41L93 0H34L93 77Q50 138 50 229Q50 280 60 333T89 436T135 530T197 607T275 659T367 678Q411 678 447 665T513 626L544 667H603L545 591Q567 560 578 521T590 436Q590 360 568 281T505 136T405 30T273 -12ZM278 59Q327 59 368 93T440 181T488 303T506 436Q506 482 490 520L173 104Q212 59 278 59ZM133 229Q133 183 147 147L464 563Q425 607 361 607Q312 607 270 573T198 484T150 363T133 229Z"  />
<glyph unicode="&#xD9;" horiz-adv-x="569" d="M400 728L297 872H370L451 728H400ZM259 -12Q167 -12 113 36T59 170Q59 183 60 195T64 217L163 667H243L143 215Q142 210 141 199T139 177Q139 123 172 91T262 59Q326 59 361 98T413 215L512 667H592L493 216Q468 106 414 47T259 -12Z"  />
<glyph unicode="&#xDA;" horiz-adv-x="569" d="M384 728H331L477 872H551L384 728ZM259 -12Q167 -12 113 36T59 170Q59 183 60 195T64 217L163 667H243L143 215Q142 210 141 199T139 177Q139 123 172 91T262 59Q326 59 361 98T413 215L512 667H592L493 216Q468 106 414 47T259 -12Z"  />
<glyph unicode="&#xDB;" horiz-adv-x="569" d="M467 728L418 833L326 728H278L390 872H460L511 728H467ZM259 -12Q167 -12 113 36T59 170Q59 183 60 195T64 217L163 667H243L143 215Q142 210 141 199T139 177Q139 123 172 91T262 59Q326 59 361 98T413 215L512 667H592L493 216Q468 106 414 47T259 -12Z"  />
<glyph unicode="&#xDC;" horiz-adv-x="569" d="M535 778Q535 758 520 743T484 728Q467 728 456 739T444 768Q444 788 459 803T495 818Q512 818 523 807T535 778ZM360 778Q360 758 345 743T310 728Q293 728 282 739T270 768Q270 788 285 803T320 818Q337 818 348 807T360 778ZM259 -12Q167 -12 113 36T59 170Q59 183 60 195T64 217L163 667H243L143 215Q142 210 141 199T139 177Q139 123 172 91T262 59Q326 59 361 98T413 215L512 667H592L493 216Q468 106 414 47T259 -12Z"  />
<glyph unicode="&#xDD;" horiz-adv-x="501" d="M354 728H301L447 872H521L354 728ZM157 0L219 282L98 667H182L271 359L496 667H589L298 282L236 0H157Z"  />
<glyph unicode="&#xDE;" horiz-adv-x="488" d="M16 0L163 667H243L216 547H329Q362 547 390 535T438 501T470 450T482 385Q482 345 469 303T428 227T356 170T249 147H128L96 0H16ZM256 218Q292 218 318 232T363 268T390 320T399 379Q399 422 374 449T309 477H201L144 218H256Z"  />
<glyph unicode="&#xDF;" horiz-adv-x="816" d="M176 -12Q118 -12 70 7T-9 68L40 121Q60 90 96 72T176 54Q202 54 221 62T253 85T272 117T278 155Q278 180 263 198T226 232T178 263T129 296T92 339T77 399Q77 433 91 462T129 514T185 549T255 562Q306 562 348 543T416 492L369 440Q351 466 319 481T253 496Q233 496 216 489T185 470T164 441T156 405Q156 382 171 365T208 334T257 304T305 269T343 222T358 157Q358 126 346 96T311 41T254 3T176 -12ZM584 -12Q526 -12 478 7T399 68L448 121Q468 90 504 72T584 54Q610 54 629 62T661 85T680 117T686 155Q686 180 671 198T634 232T586 263T537 296T500 339T485 399Q485 433 499 462T537 514T593 549T663 562Q714 562 756 543T824 492L777 440Q759 466 727 481T661 496Q641 496 624 489T593 470T572 441T564 405Q564 382 579 365T616 334T665 304T713 269T751 222T766 157Q766 126 754 96T719 41T662 3T584 -12Z"  />
<glyph unicode="&#xE0;" horiz-adv-x="445" d="M333 550L384 0H305L296 122H97L35 0H-48L246 550H333ZM273 465L128 188H294L273 465ZM310 606L207 750H280L361 606H310Z"  />
<glyph unicode="&#xE1;" horiz-adv-x="445" d="M333 550L384 0H305L296 122H97L35 0H-48L246 550H333ZM273 465L128 188H294L273 465ZM296 606H243L389 750H463L296 606Z"  />
<glyph unicode="&#xE2;" horiz-adv-x="445" d="M333 550L384 0H305L296 122H97L35 0H-48L246 550H333ZM273 465L128 188H294L273 465ZM376 606L327 711L235 606H187L299 750H369L420 606H376Z"  />
<glyph unicode="&#xE3;" horiz-adv-x="445" d="M333 550L384 0H305L296 122H97L35 0H-48L246 550H333ZM273 465L128 188H294L273 465ZM360 604Q334 604 324 618T306 651T292 683T267 698Q249 698 235 677T211 610H168Q174 638 183 662T205 705T235 733T274 744Q299 744 310 730T327 697T341 665T367 650Q385 650 398 671T423 738H466Q454 681 429 643T360 604Z"  />
<glyph unicode="&#xE4;" horiz-adv-x="445" d="M333 550L384 0H305L296 122H97L35 0H-48L246 550H333ZM273 465L128 188H294L273 465ZM446 665Q446 645 431 630T395 615Q378 615 367 626T355 655Q355 675 370 690T406 705Q423 705 434 694T446 665ZM271 665Q271 645 256 630T221 615Q204 615 193 626T181 655Q181 675 196 690T231 705Q248 705 259 694T271 665Z"  />
<glyph unicode="&#xE5;" horiz-adv-x="445" d="M333 550L384 0H305L296 122H97L35 0H-48L246 550H333ZM273 465L128 188H294L273 465ZM312 604Q276 604 254 627T231 687Q231 707 239 725T260 757T292 779T331 787Q367 787 389 764T412 704Q412 684 404 666T383 634T351 612T312 604ZM315 642Q339 642 357 659T375 701Q375 722 362 735T328 749Q304 749 287 732T269 690Q269 670 282 656T315 642Z"  />
<glyph unicode="&#xE6;" horiz-adv-x="648" d="M248 0L274 122H116L32 0H-51L339 550H670L656 484H429L391 315H612L598 249H377L337 66H563L549 0H248ZM350 465L157 188H289L350 465Z"  />
<glyph unicode="&#xE7;" horiz-adv-x="468" d="M181 -191Q150 -191 127 -181T86 -153L112 -119Q126 -136 144 -144T183 -152Q209 -152 223 -138T238 -104Q238 -91 230 -83T207 -75Q190 -75 176 -91L148 -73L186 -7Q119 7 79 58T38 197Q38 260 57 324T112 442T198 528T312 562Q375 562 419 529T480 441L415 419Q402 455 374 475T310 496Q268 496 233 469T171 398T130 302T115 199Q115 128 150 91T242 54Q278 54 307 72T361 126L416 93Q382 46 340 17T238 -12H227L200 -55Q213 -45 229 -45Q252 -45 267 -60T282 -102Q282 -140 254 -165T181 -191Z"  />
<glyph unicode="&#xE8;" horiz-adv-x="411" d="M12 0L133 550H434L420 484H194L155 315H376L362 249H141L101 66H327L313 0H12ZM306 606L203 750H276L357 606H306Z"  />
<glyph unicode="&#xE9;" horiz-adv-x="411" d="M12 0L133 550H434L420 484H194L155 315H376L362 249H141L101 66H327L313 0H12ZM292 606H239L385 750H459L292 606Z"  />
<glyph unicode="&#xEA;" horiz-adv-x="411" d="M12 0L133 550H434L420 484H194L155 315H376L362 249H141L101 66H327L313 0H12ZM371 606L322 711L230 606H182L294 750H364L415 606H371Z"  />
<glyph unicode="&#xEB;" horiz-adv-x="411" d="M12 0L133 550H434L420 484H194L155 315H376L362 249H141L101 66H327L313 0H12ZM441 665Q441 645 426 630T390 615Q373 615 362 626T350 655Q350 675 365 690T401 705Q418 705 429 694T441 665ZM266 665Q266 645 251 630T216 615Q199 615 188 626T176 655Q176 675 191 690T226 705Q243 705 254 694T266 665Z"  />
<glyph unicode="&#xEC;" horiz-adv-x="204" d="M12 0L133 550H208L87 0H12ZM190 606L87 750H160L241 606H190Z"  />
<glyph unicode="&#xED;" horiz-adv-x="204" d="M12 0L133 550H208L87 0H12ZM176 606H123L269 750H343L176 606Z"  />
<glyph unicode="&#xEE;" horiz-adv-x="204" d="M12 0L133 550H208L87 0H12ZM255 606L206 711L114 606H66L178 750H248L299 606H255Z"  />
<glyph unicode="&#xEF;" horiz-adv-x="204" d="M12 0L133 550H208L87 0H12ZM327 665Q327 645 312 630T276 615Q259 615 248 626T236 655Q236 675 251 690T287 705Q304 705 315 694T327 665ZM152 665Q152 645 137 630T102 615Q85 615 74 626T62 655Q62 675 77 690T112 705Q129 705 140 694T152 665Z"  />
<glyph unicode="&#xF0;" horiz-adv-x="521" d="M22 0L77 252H17L29 307H89L143 550H275Q321 550 360 537T427 497T470 432T486 344Q486 284 470 223T418 112T327 31T193 0H22ZM205 66Q255 66 293 90T356 154T395 243T408 341Q408 410 371 447T266 484H203L164 307H264L252 252H152L111 66H205Z"  />
<glyph unicode="&#xF1;" horiz-adv-x="510" d="M315 0L179 418L86 0H12L133 550H211L346 142L436 550H511L390 0H315ZM391 604Q365 604 355 618T337 651T323 683T298 698Q280 698 266 677T242 610H199Q205 638 214 662T236 705T266 733T305 744Q330 744 341 730T358 697T372 665T398 650Q416 650 429 671T454 738H497Q485 681 460 643T391 604Z"  />
<glyph unicode="&#xF2;" horiz-adv-x="529" d="M235 -12Q143 -12 91 44T38 197Q38 254 55 318T106 437T190 526T307 562Q398 562 451 506T504 353Q504 296 487 232T435 113T351 24T235 -12ZM237 54Q283 54 318 84T378 159T414 256T427 352Q427 417 396 456T305 496Q259 496 224 466T164 391T127 294T114 198Q114 133 145 94T237 54ZM351 606L248 750H321L402 606H351Z"  />
<glyph unicode="&#xF3;" horiz-adv-x="529" d="M235 -12Q143 -12 91 44T38 197Q38 254 55 318T106 437T190 526T307 562Q398 562 451 506T504 353Q504 296 487 232T435 113T351 24T235 -12ZM237 54Q283 54 318 84T378 159T414 256T427 352Q427 417 396 456T305 496Q259 496 224 466T164 391T127 294T114 198Q114 133 145 94T237 54ZM339 606H286L432 750H506L339 606Z"  />
<glyph unicode="&#xF4;" horiz-adv-x="529" d="M235 -12Q143 -12 91 44T38 197Q38 254 55 318T106 437T190 526T307 562Q398 562 451 506T504 353Q504 296 487 232T435 113T351 24T235 -12ZM237 54Q283 54 318 84T378 159T414 256T427 352Q427 417 396 456T305 496Q259 496 224 466T164 391T127 294T114 198Q114 133 145 94T237 54ZM418 606L369 711L277 606H229L341 750H411L462 606H418Z"  />
<glyph unicode="&#xF5;" horiz-adv-x="529" d="M235 -12Q143 -12 91 44T38 197Q38 254 55 318T106 437T190 526T307 562Q398 562 451 506T504 353Q504 296 487 232T435 113T351 24T235 -12ZM237 54Q283 54 318 84T378 159T414 256T427 352Q427 417 396 456T305 496Q259 496 224 466T164 391T127 294T114 198Q114 133 145 94T237 54ZM403 604Q377 604 367 618T349 651T335 683T310 698Q292 698 278 677T254 610H211Q217 638 226 662T248 705T278 733T317 744Q342 744 353 730T370 697T384 665T410 650Q428 650 441 671T466 738H509Q497 681 472 643T403 604Z"  />
<glyph unicode="&#xF6;" horiz-adv-x="529" d="M235 -12Q143 -12 91 44T38 197Q38 254 55 318T106 437T190 526T307 562Q398 562 451 506T504 353Q504 296 487 232T435 113T351 24T235 -12ZM237 54Q283 54 318 84T378 159T414 256T427 352Q427 417 396 456T305 496Q259 496 224 466T164 391T127 294T114 198Q114 133 145 94T237 54ZM489 665Q489 645 474 630T438 615Q421 615 410 626T398 655Q398 675 413 690T449 705Q466 705 477 694T489 665ZM314 665Q314 645 299 630T264 615Q247 615 236 626T224 655Q224 675 239 690T274 705Q291 705 302 694T314 665Z"  />
<glyph unicode="&#xF7;" horiz-adv-x="443" d="M44 312L55 363H440L428 312H44ZM200 123Q183 123 172 135T160 164Q160 184 174 198T209 213Q226 213 238 201T250 171Q250 151 235 137T200 123ZM275 458Q258 458 246 470T234 499Q234 519 248 533T283 547Q300 547 312 535T324 506Q324 486 310 472T275 458Z"  />
<glyph unicode="&#xF8;" horiz-adv-x="529" d="M235 -12Q153 -12 102 33L74 0H15L71 68Q38 119 38 197Q38 254 55 318T106 437T190 526T307 562Q348 562 381 550T440 516L468 550H527L470 481Q504 428 504 353Q504 296 487 232T435 113T351 24T235 -12ZM114 198Q114 159 124 132L393 459Q377 476 356 486T305 496Q259 496 224 466T164 391T127 294T114 198ZM237 54Q283 54 318 84T378 159T414 256T427 352Q427 370 425 386T417 416L148 90Q181 54 237 54Z"  />
<glyph unicode="&#xF9;" horiz-adv-x="507" d="M227 -12Q139 -12 93 27T46 133Q46 147 48 162T53 188L133 550H208L127 184Q125 176 124 166T122 148Q122 99 151 77T228 54Q280 54 309 87T352 187L433 550H508L428 189Q417 141 402 104T362 41T305 2T227 -12ZM340 606L237 750H310L391 606H340Z"  />
<glyph unicode="&#xFA;" horiz-adv-x="507" d="M227 -12Q139 -12 93 27T46 133Q46 147 48 162T53 188L133 550H208L127 184Q125 176 124 166T122 148Q122 99 151 77T228 54Q280 54 309 87T352 187L433 550H508L428 189Q417 141 402 104T362 41T305 2T227 -12ZM328 606H275L421 750H495L328 606Z"  />
<glyph unicode="&#xFB;" horiz-adv-x="507" d="M227 -12Q139 -12 93 27T46 133Q46 147 48 162T53 188L133 550H208L127 184Q125 176 124 166T122 148Q122 99 151 77T228 54Q280 54 309 87T352 187L433 550H508L428 189Q417 141 402 104T362 41T305 2T227 -12ZM406 606L357 711L265 606H217L329 750H399L450 606H406Z"  />
<glyph unicode="&#xFC;" horiz-adv-x="507" d="M227 -12Q139 -12 93 27T46 133Q46 147 48 162T53 188L133 550H208L127 184Q125 176 124 166T122 148Q122 99 151 77T228 54Q280 54 309 87T352 187L433 550H508L428 189Q417 141 402 104T362 41T305 2T227 -12ZM477 665Q477 645 462 630T426 615Q409 615 398 626T386 655Q386 675 401 690T437 705Q454 705 465 694T477 665ZM302 665Q302 645 287 630T252 615Q235 615 224 626T212 655Q212 675 227 690T262 705Q279 705 290 694T302 665Z"  />
<glyph unicode="&#xFD;" horiz-adv-x="439" d="M129 0L180 233L70 550H152L232 304L418 550H502L255 233L204 0H129ZM294 606H241L387 750H461L294 606Z"  />
<glyph unicode="&#xFE;" horiz-adv-x="429" d="M12 0L133 550H208L188 457H266Q335 457 375 422T416 321Q416 285 404 250T369 186T310 140T230 122H113L87 0H12ZM232 188Q257 188 277 199T310 228T331 269T338 315Q338 353 315 372T254 391H172L127 188H218H232Z"  />
<glyph unicode="&#xFF;" horiz-adv-x="439" d="M129 0L180 233L70 550H152L232 304L418 550H502L255 233L204 0H129ZM444 665Q444 645 429 630T393 615Q376 615 365 626T353 655Q353 675 368 690T404 705Q421 705 432 694T444 665ZM269 665Q269 645 254 630T219 615Q202 615 191 626T179 655Q179 675 194 690T229 705Q246 705 257 694T269 665Z"  />
<glyph unicode="&#x152;" horiz-adv-x="852" d="M406 0L424 84Q389 33 344 11T247 -12Q202 -12 166 5T104 55T64 131T50 229Q50 277 60 329T90 431T137 525T201 603T278 657T369 677Q394 677 418 672T464 653T503 617T530 561L553 667H896L881 596H617L569 377H826L810 306H553L501 71H765L749 0H406ZM507 456Q499 530 463 568T367 606Q333 606 302 589T245 543T198 476T163 396T141 311T133 229Q133 153 169 106T272 59Q323 59 369 93T448 190L507 456Z"  />
<glyph unicode="&#x153;" horiz-adv-x="743" d="M342 0L357 66Q329 24 292 6T217 -12Q175 -12 142 3T86 45T50 110T38 194Q38 249 55 313T107 433T190 525T303 562Q350 562 389 539T445 463L463 550H765L751 484H524L486 315H707L693 249H472L432 66H658L644 0H342ZM425 375Q416 438 383 467T305 496Q261 496 226 465T166 388T128 290T114 198Q114 130 147 92T237 54Q284 54 320 85T380 174L425 375Z"  />
<glyph unicode="&#x160;" horiz-adv-x="466" d="M313 728L262 872H306L354 767L447 872H495L383 728H313ZM206 -12Q139 -12 83 14T0 82L52 140Q77 103 118 81T209 59Q239 59 262 69T302 97T327 138T336 187Q336 217 319 239T275 280T218 319T161 361T118 413T100 484Q100 524 116 559T160 620T225 662T306 678Q363 678 411 657T489 597L439 540Q415 573 378 590T301 607Q275 607 254 598T217 574T193 538T184 495Q184 468 201 447T245 407T302 369T359 325T402 271T420 199Q420 157 405 119T363 52T295 5T206 -12Z"  />
<glyph unicode="&#x161;" horiz-adv-x="408" d="M176 -12Q118 -12 70 7T-9 68L40 121Q60 90 96 72T176 54Q202 54 221 62T253 85T272 117T278 155Q278 180 263 198T226 232T178 263T129 296T92 339T77 399Q77 433 91 462T129 514T185 549T255 562Q306 562 348 543T416 492L369 440Q351 466 319 481T253 496Q233 496 216 489T185 470T164 441T156 405Q156 382 171 365T208 334T257 304T305 269T343 222T358 157Q358 126 346 96T311 41T254 3T176 -12ZM254 606L203 750H247L295 645L388 750H436L324 606H254Z"  />
<glyph unicode="&#x178;" horiz-adv-x="501" d="M503 778Q503 758 488 743T452 728Q435 728 424 739T412 768Q412 788 427 803T463 818Q480 818 491 807T503 778ZM328 778Q328 758 313 743T278 728Q261 728 250 739T238 768Q238 788 253 803T288 818Q305 818 316 807T328 778ZM157 0L219 282L98 667H182L271 359L496 667H589L298 282L236 0H157Z"  />
<glyph unicode="&#x17D;" horiz-adv-x="463" d="M305 728L254 872H298L346 767L439 872H487L375 728H305ZM-14 0L1 68L394 596H118L133 667H509L495 601L100 71H384L369 0H-14Z"  />
<glyph unicode="&#x17E;" horiz-adv-x="405" d="M-21 0L-9 58L325 484H86L100 550H433L420 493L87 66H332L318 0H-21ZM246 606L195 750H239L287 645L380 750H428L316 606H246Z"  />
<glyph unicode="&#x192;" horiz-adv-x="345" d="M-29 -119L45 215H1V270H57L91 422Q108 494 141 527T227 561Q273 561 301 532L268 475Q258 490 234 490Q208 490 193 470T170 413L138 270H227V215H126L51 -119H-29Z"  />
<glyph unicode="&#x2C6;" horiz-adv-x="233" d="M258 556L209 661L117 556H69L181 700H251L302 556H258Z"  />
<glyph unicode="&#x2DC;" horiz-adv-x="270" d="M262 554Q236 554 226 568T208 601T194 633T169 648Q151 648 137 627T113 560H70Q76 588 85 612T107 655T137 683T176 694Q201 694 212 680T229 647T243 615T269 600Q287 600 300 621T325 688H368Q356 631 331 593T262 554Z"  />
<glyph unicode="&#x3BC;" horiz-adv-x="465" d="M-29 -184L119 483H190L114 139Q103 90 119 70T171 50Q189 50 207 56T243 74T275 98T302 127L381 483H453L346 0H274L288 65Q259 33 218 11T131 -12Q116 -12 104 -10T81 -5L42 -184H-29Z"  />
<glyph unicode="&#x2013;" horiz-adv-x="527" d="M22 210L36 274H502L489 210H22Z"  />
<glyph unicode="&#x2014;" horiz-adv-x="737" d="M22 210L36 274H712L699 210H22Z"  />
<glyph unicode="&#x2018;" horiz-adv-x="229" d="M114 517Q114 540 123 563T148 608T184 647T228 677L258 646Q230 632 207 609T175 562H183Q200 562 212 550T224 518Q224 494 207 478T166 461Q145 461 130 475T114 517Z"  />
<glyph unicode="&#x2019;" horiz-adv-x="229" d="M254 620Q254 597 245 574T220 529T184 490T141 460L111 492Q138 506 162 529T194 576H186Q169 576 157 588T145 620Q145 643 162 660T203 677Q224 677 239 663T254 620Z"  />
<glyph unicode="&#x201A;" horiz-adv-x="229" d="M125 40Q125 17 116 -6T91 -51T55 -90T12 -120L-18 -88Q9 -74 33 -52T65 -4Q64 -5 62 -5T57 -5Q40 -5 28 7T16 39Q16 63 33 80T74 97Q95 97 110 83T125 40Z"  />
<glyph unicode="&#x201C;" horiz-adv-x="386" d="M275 517Q275 540 284 563T309 608T345 647T389 677L419 646Q391 632 367 609T335 562H343Q360 562 372 550T385 518Q385 494 368 478T327 461Q305 461 290 475T275 517ZM119 517Q119 540 128 563T153 608T189 647T233 677L262 646Q235 632 211 609T179 562H187Q204 562 216 550T228 518Q228 494 211 478T170 461Q149 461 134 475T119 517Z"  />
<glyph unicode="&#x201D;" horiz-adv-x="386" d="M254 620Q254 597 245 574T220 529T184 490T141 460L111 492Q138 506 162 529T194 576H186Q169 576 157 588T145 620Q145 643 162 660T203 677Q224 677 239 663T254 620ZM411 620Q411 597 402 574T377 529T341 490T297 460L267 492Q295 506 318 529T350 576H342Q325 576 313 588T301 620Q301 643 318 660T359 677Q380 677 395 663T411 620Z"  />
<glyph unicode="&#x201E;" horiz-adv-x="386" d="M125 40Q125 17 116 -6T91 -51T55 -90T12 -120L-18 -88Q9 -74 33 -52T65 -4Q64 -5 62 -5T57 -5Q40 -5 28 7T16 39Q16 63 33 80T74 97Q95 97 110 83T125 40ZM282 40Q282 17 273 -6T248 -51T212 -90T168 -120L138 -88Q166 -74 190 -52T222 -4Q221 -5 219 -5T214 -5Q197 -5 185 7T172 39Q172 63 189 80T230 97Q252 97 267 83T282 40Z"  />
<glyph unicode="&#x2020;" horiz-adv-x="262" d="M215 536L172 327H125L176 536L86 532L95 574L184 571L203 677H250L222 571L312 574L303 532L215 536Z"  />
<glyph unicode="&#x2021;" horiz-adv-x="262" d="M303 532L215 536L167 322L257 326L248 284L160 287L139 180H92L121 287L31 284L40 326L128 322L176 536L86 532L95 574L183 571L203 677H250L222 571L312 574L303 532Z"  />
<glyph unicode="&#x2022;" horiz-adv-x="358" d="M287 253Q287 229 277 208T251 171T213 146T167 136Q125 136 98 163T71 232Q71 256 80 277T106 314T145 339T191 349Q233 349 260 322T287 253Z"  />
<glyph unicode="&#x2026;" horiz-adv-x="685" d="M65 -10Q44 -10 30 4T16 39Q16 63 33 80T75 97Q95 97 109 83T123 47Q123 23 106 7T65 -10ZM293 -10Q273 -10 259 4T244 39Q244 63 261 80T303 97Q323 97 337 83T352 47Q352 23 335 7T293 -10ZM522 -10Q501 -10 487 4T473 39Q473 63 490 80T531 97Q552 97 566 83T580 47Q580 23 563 7T522 -10Z"  />
<glyph unicode="&#x2030;" horiz-adv-x="785" d="M301 451Q301 421 291 392T262 340T219 303T163 289Q115 289 87 318T59 399Q59 429 69 458T97 511T141 548T196 562Q244 562 272 533T301 451ZM76 0H30L464 550H511L76 0ZM250 451Q250 482 236 500T195 519Q177 519 162 509T135 482T117 444T110 399Q110 369 124 351T165 332Q183 332 198 342T225 368T243 406T250 451ZM481 151Q481 121 471 92T443 40T399 3T343 -11Q295 -11 268 18T240 99Q240 129 250 158T278 211T322 248T377 262Q425 262 453 233T481 151ZM431 151Q431 182 417 201T376 220Q358 220 342 210T315 183T297 144T290 100Q290 69 304 51T346 32Q364 32 379 42T406 69T424 107T431 151ZM738 151Q738 121 728 92T700 40T656 3T601 -11Q553 -11 525 18T497 99Q497 129 507 158T535 211T579 248T634 262Q682 262 710 233T738 151ZM688 151Q688 182 674 201T633 220Q615 220 600 210T572 183T554 144T547 100Q547 69 561 51T603 32Q621 32 636 42T663 69T681 107T688 151Z"  />
<glyph unicode="&#x2039;" horiz-adv-x="252" d="M114 63L29 243L194 420H264L95 239L178 63H114Z"  />
<glyph unicode="&#x203A;" horiz-adv-x="252" d="M139 420L224 240L59 63H-11L158 245L75 420H139Z"  />
<glyph unicode="&#x20AC;" horiz-adv-x="487" d="M152 314Q146 294 142 275T136 235H315L306 192H134Q136 124 171 89T261 54Q297 54 326 72T380 126L435 93Q401 46 359 17T257 -12Q213 -12 177 1T114 40T73 104T57 192H12L21 235H59Q62 273 73 314H39L48 357H87Q103 399 127 436T182 501T250 545T331 562Q394 562 438 529T499 441L434 419Q421 455 393 475T329 496Q303 496 280 485T236 456T198 412T168 357H342L332 314H152Z"  />
<glyph unicode="&#x2122;" horiz-adv-x="414" d="M396 447L436 629L331 447H323L298 629L258 447H230L278 667H321L341 509L429 667H472L424 447H396ZM185 641L142 447H114L157 641H105L110 667H242L237 641H185Z"  />


</font>
</defs>
</svg>
